<svg aria-hidden="true" style="position:absolute;width:0;height:0;overflow:hidden" xmlns="http://www.w3.org/2000/svg"><defs><symbol id="icon-menu" viewBox="0 0 32 32"><path d="M3.2 5.12h-.018a1.28 1.28 0 1 0 0 2.56h25.636a1.28 1.28 0 1 0 0-2.56H3.2zm0 9.6h-.018a1.28 1.28 0 1 0 0 2.56h25.636a1.28 1.28 0 1 0 0-2.56H3.2zm0 9.6h-.018a1.28 1.28 0 1 0 0 2.56h25.636a1.28 1.28 0 1 0 0-2.56H3.2z"/></symbol><symbol id="icon-close" viewBox="0 0 32 32"><path d="M7.293 7.293a.999.999 0 0 1 1.414 0l16 16a.999.999 0 1 1-1.414 1.414l-16-16a.999.999 0 0 1 0-1.414z"/><path d="M24.707 7.293a.999.999 0 0 1 0 1.414l-16 16a.999.999 0 1 1-1.414-1.414l16-16a.999.999 0 0 1 1.414 0z"/></symbol><symbol id="icon-exit" viewBox="0 0 32 32"><path fill="currentColor" d="M16 4a1.333 1.333 0 0 1 .155 2.657L16 6.666H9.333c-.684 0-1.247.515-1.324 1.178L8 8v16c0 .684.515 1.247 1.178 1.324l.155.009h6a1.333 1.333 0 0 1 .155 2.657l-.155.009h-6a4 4 0 0 1-3.993-3.765l-.007-.235v-16a4 4 0 0 1 3.765-3.993l.235-.007H16zm7.609 7.286 3.771 3.771a1.333 1.333 0 0 1 0 1.886l-3.771 3.771a1.333 1.333 0 1 1-1.886-1.886l1.495-1.495h-7.219a1.333 1.333 0 0 1 0-2.666h7.219l-1.495-1.495a1.333 1.333 0 1 1 1.886-1.886z"/></symbol><symbol id="icon-settings" viewBox="0 0 32 32"><path fill="currentColor" d="M16 11a5 5 0 1 0 .001 10.001A5 5 0 0 0 16 11zm-3 5a3 3 0 1 1 6 0 3 3 0 0 1-6 0z"/><path fill="currentColor" d="M15.966 1.667c-.593 0-1.087 0-1.493.028-.423.029-.822.091-1.209.251A3.667 3.667 0 0 0 11.28 3.93c-.194.468-.246.961-.266 1.496-.016.431-.233.79-.554.975s-.741.194-1.122-.008c-.474-.251-.927-.452-1.429-.518a3.668 3.668 0 0 0-2.711.726c-.332.255-.586.57-.822.922-.227.338-.474.766-.771 1.28l-.034.058c-.296.513-.544.942-.723 1.307-.186.381-.332.758-.387 1.173a3.668 3.668 0 0 0 .726 2.711c.308.401.709.693 1.163.979.365.229.568.597.568.968s-.203.738-.568.968c-.454.285-.855.577-1.163.979a3.666 3.666 0 0 0-.726 2.711c.055.415.201.793.387 1.173.179.366.426.794.723 1.307l.034.058c.296.513.544.942.771 1.279.236.352.49.667.822.922a3.666 3.666 0 0 0 2.711.726c.502-.066.955-.267 1.429-.518.381-.201.801-.193 1.122-.008s.538.545.554.975c.02.536.073 1.029.266 1.496a3.667 3.667 0 0 0 1.984 1.984c.387.16.787.223 1.209.251.406.028.901.028 1.493.028h.067c.593 0 1.087 0 1.494-.028.423-.029.822-.091 1.209-.251a3.667 3.667 0 0 0 1.984-1.984c.194-.468.246-.961.266-1.497.016-.431.233-.79.554-.975s.741-.194 1.122.008c.474.251.927.452 1.429.518a3.668 3.668 0 0 0 2.711-.726c.333-.255.586-.57.822-.922.227-.338.474-.766.771-1.279l.034-.058c.296-.513.544-.942.723-1.307.186-.381.332-.757.387-1.173a3.668 3.668 0 0 0-.726-2.711c-.308-.402-.709-.693-1.163-.979-.365-.229-.568-.597-.568-.968s.203-.738.567-.968c.454-.285.855-.577 1.163-.979a3.666 3.666 0 0 0 .726-2.711c-.055-.415-.201-.792-.387-1.173a22.972 22.972 0 0 0-.723-1.307l-.034-.058a23.663 23.663 0 0 0-.771-1.28c-.236-.352-.49-.667-.822-.922a3.666 3.666 0 0 0-2.711-.726c-.502.066-.955.267-1.429.518-.381.201-.801.193-1.122.008s-.538-.545-.554-.975c-.02-.536-.072-1.029-.266-1.496a3.667 3.667 0 0 0-1.984-1.984c-.387-.16-.787-.223-1.209-.251-.406-.028-.901-.028-1.494-.028h-.067zm-1.937 2.127c.103-.043.259-.082.58-.104.33-.022.756-.023 1.391-.023s1.061.001 1.391.023c.321.022.477.061.58.104.408.169.733.494.902.902.053.129.098.33.115.806.039 1.056.585 2.074 1.553 2.633s2.122.523 3.056.029c.421-.223.617-.285.755-.303.438-.058.881.061 1.232.33.088.068.201.183.38.45.185.274.398.643.715 1.193s.53.919.676 1.216c.141.289.186.444.2.554.058.438-.061.881-.33 1.232-.085.111-.237.249-.64.503-.895.563-1.503 1.543-1.503 2.661s.608 2.099 1.503 2.661c.403.253.555.392.64.503.269.351.388.794.33 1.232-.015.11-.059.265-.2.554-.145.297-.358.666-.676 1.216s-.531.919-.715 1.193c-.179.267-.292.383-.38.45a1.666 1.666 0 0 1-1.232.33c-.138-.018-.334-.08-.755-.303-.935-.494-2.088-.53-3.057.029s-1.513 1.576-1.553 2.633c-.018.476-.062.677-.115.806a1.668 1.668 0 0 1-.902.902c-.103.043-.259.082-.58.104-.33.023-.756.023-1.391.023s-1.061-.001-1.391-.023c-.321-.022-.477-.061-.58-.104a1.668 1.668 0 0 1-.902-.902c-.053-.129-.098-.33-.115-.806-.04-1.056-.585-2.074-1.553-2.633s-2.122-.523-3.056-.029c-.421.223-.617.285-.755.303a1.666 1.666 0 0 1-1.232-.33c-.088-.068-.201-.183-.38-.451-.184-.274-.398-.643-.715-1.193s-.53-.919-.676-1.216c-.142-.289-.186-.444-.2-.554a1.666 1.666 0 0 1 .33-1.232c.085-.111.237-.249.64-.503.895-.562 1.503-1.543 1.504-2.661S6.31 13.9 5.414 13.338c-.403-.253-.555-.392-.64-.503a1.666 1.666 0 0 1-.33-1.232c.015-.11.059-.265.2-.554.145-.297.358-.666.676-1.216s.531-.919.715-1.193c.179-.267.292-.383.38-.45a1.666 1.666 0 0 1 1.232-.33c.138.018.334.08.756.303.935.494 2.088.53 3.056-.029s1.513-1.576 1.553-2.633c.018-.476.062-.677.115-.806.169-.408.494-.733.902-.902z"/></symbol><symbol id="icon-github" viewBox="0 0 32 32"><path d="M5.433 3.992c.078-1.373.406-1.971 1.347-2.45 1.012-.516 2.609-.276 4.488.675.809.41.892.418 2.31.236 1.885-.242 4.312-.241 6.052.002 1.316.184 1.402.175 2.213-.236 2.667-1.35 4.772-1.262 5.535.232.381.746.451 2.681.156 4.278-.164.885-.146.995.248 1.576 2.773 4.086.775 10.71-3.977 13.182-.364.189-.67.306-.92.402-.767.293-1 .382-.718 1.729.136.648.299 2.26.363 3.582.116 2.389.114 2.406-.305 2.893-.57.663-1.393.674-1.95.027-.363-.422-.399-.622-.399-2.252 0-2.408-.264-4.009-.888-5.381-.742-1.632-.192-2.241 1.504-2.606 2.358-.507 4.199-1.962 5.226-4.129.976-2.06 1.123-4.906-.641-6.637-.502-.596-.537-1.136-.178-2.765.134-.609.246-1.394.249-1.745.005-.555-.045-.638-.386-.638-.216 0-1.039.314-1.83.697l-1.262.612a.665.665 0 0 1-.37.062 40.51 40.51 0 0 0-9.486.001.677.677 0 0 1-.371-.062l-1.262-.612c-.791-.384-1.615-.698-1.83-.698-.498 0-.506.368-.052 2.554.277 1.335.464 1.632-.338 2.7-1.202 1.6-1.503 3.587-.858 5.675.813 2.631 2.803 4.408 5.6 5.001 1.687.357 2.127.824 1.483 2.758-.507 1.522-.827 1.914-1.564 1.914-.991 0-1.612-.859-1.27-1.757.15-.396.106-.438-.823-.777-2.835-1.033-5.003-3.35-5.994-6.404-.766-2.361-.429-5.433.8-7.29.418-.632.425-.686.23-1.896a13.727 13.727 0 0 1-.133-2.451zM4.443 21.261a1.333 1.333 0 0 0-2.219 1.479c.302.452.662.824.969 1.13l.165.164c.257.255.483.48.711.747.503.591 1.006 1.387 1.291 2.813.127.636.584.978.837 1.128.275.162.574.258.821.32.505.127 1.118.193 1.7.232a33.95 33.95 0 0 0 1.949.06 1.332 1.332 0 1 0 2.666-.001V28c0-.736-.597-1.333-1.333-1.333l-.406.001c-.782.002-1.802.005-2.701-.054a9.126 9.126 0 0 1-1.05-.119c-.402-1.579-1.052-2.629-1.745-3.443-.306-.36-.624-.674-.882-.93l-.138-.137c-.298-.298-.493-.509-.635-.724z"/></symbol><symbol id="icon-support" viewBox="0 0 32 32"><path d="M16 0C7.164 0 0 7.163 0 16s7.163 16 16 16 16-7.163 16-16S24.837 0 16 0zm4 2.593A14.013 14.013 0 0 1 29.397 12h-6.486a8.049 8.049 0 0 0-2.91-2.908zm1.989 13.413C21.989 19.317 19.308 22 16 22s-5.989-2.683-5.989-5.994 2.681-5.994 5.989-5.994a5.992 5.992 0 0 1 5.989 5.994zM14 2.154a14.022 14.022 0 0 1 4 0v6.119c-.64-.165-1.308-.262-2-.262s-1.36.097-2 .262V2.154zm-2 .439v6.499A8.04 8.04 0 0 0 9.09 12H2.603A14.015 14.015 0 0 1 12 2.593zM2.01 16.005c0-.682.058-1.349.152-2.005h6.106a7.984 7.984 0 0 0-.257 2.005c0 .69.091 1.357.255 1.995H2.161a14.107 14.107 0 0 1-.151-1.995zM12 29.416A14.016 14.016 0 0 1 2.6 20h6.483a8.056 8.056 0 0 0 2.916 2.919v6.498zm6 .439c-.654.093-1.321.145-2 .145s-1.347-.052-2-.145v-6.118c.64.166 1.308.262 2 .262s1.36-.097 2-.262v6.118zm2-.439v-6.498a8.033 8.033 0 0 0 2.916-2.919h6.483A14.013 14.013 0 0 1 20 29.415zM23.735 18a7.933 7.933 0 0 0-.003-4h6.107a14.1 14.1 0 0 1 .152 2.005c0 .678-.058 1.343-.151 1.995h-6.105z"/></symbol><symbol id="icon-arrow" viewBox="0 0 32 32"><path d="M7.414 27.414 24 10.828V18a2 2 0 1 0 4 0V6a2 2 0 0 0-2-1.999V4H14a2 2 0 1 0 0 4h7.172L4.586 24.586C4.195 24.976 4 25.488 4 26s.195 1.024.586 1.414a2 2 0 0 0 2.828 0z"/></symbol><symbol id="icon-eye" viewBox="0 0 32 32"><path d="M16 25c-7.773 0-11.427-8.253-11.587-8.6a1.039 1.039 0 0 1 0-.8C4.573 15.253 8.226 7 16 7s11.427 8.253 11.587 8.6a1.039 1.039 0 0 1 0 .8c-.16.347-3.813 8.6-11.587 8.6zm-9.56-9c.787 1.533 4 7 9.56 7s8.773-5.467 9.56-7c-.787-1.533-4-7-9.56-7s-8.773 5.467-9.56 7z"/><path d="M16 20.333a4.331 4.331 0 0 1-4.25-5.179 4.331 4.331 0 0 1 5.909-3.158 4.33 4.33 0 0 1 2.675 4.003 4.344 4.344 0 0 1-4.333 4.333zm0-6.666a2.335 2.335 0 0 0-2.288 2.788 2.33 2.33 0 0 0 1.834 1.834 2.33 2.33 0 0 0 2.395-.992c.256-.383.393-.835.393-1.296a2.343 2.343 0 0 0-2.333-2.333z"/></symbol><symbol id="icon-closed-eye" viewBox="0 0 32 32"><path d="M27.587 15.6C27.427 15.253 23.774 7 16 7c-.744-.001-1.487.08-2.213.24a.998.998 0 0 0-.681 1.169.997.997 0 0 0 1.107.777A8.865 8.865 0 0 1 16 8.999c5.573 0 8.773 5.467 9.56 7a17.797 17.797 0 0 1-1.68 2.667.995.995 0 0 0-.109 1.051.995.995 0 0 0 1.683.175 17.883 17.883 0 0 0 2.133-3.453 1.045 1.045 0 0 0 0-.84zM8.707 7.293a.996.996 0 0 0-1.388.025 1.002 1.002 0 0 0-.025 1.388l1.227 1.227a17.552 17.552 0 0 0-4.107 5.68 1.021 1.021 0 0 0 0 .786c.16.347 3.813 8.6 11.587 8.6a10.58 10.58 0 0 0 5.853-1.733l1.44 1.44a1.002 1.002 0 0 0 1.414 0 1 1 0 0 0 0-1.414l-16-16zm5.106 8 2.947 2.96a2.41 2.41 0 0 1-2.413-.533 2.32 2.32 0 0 1-.533-2.494v.067zM16 23c-5.587 0-8.773-5.48-9.56-7a15.982 15.982 0 0 1 3.493-4.653l2.387 2.387a4.319 4.319 0 0 0 3.175 6.564 4.325 4.325 0 0 0 2.772-.617l2.147 2.147a8.658 8.658 0 0 1-4.413 1.173z"/></symbol></defs></svg>