<svg>
<defs>
<symbol fill="currentColor" stroke="currenColor" id="icon-logo" viewBox="0 0 32 32">
<path stroke-linejoin="round" stroke-linecap="round" stroke-miterlimit="4" stroke-width="2.6667" d="M5.333 24v-12.667c0-3.314 2.686-6 6-6v0h9.333c3.314 0 6 2.686 6 6v0 9.333c0 3.314-2.686 6-6 6v0h-12.667c-1.473 0-2.667-1.194-2.667-2.667v0z"></path>
<path stroke-linejoin="round" stroke-linecap="round" stroke-miterlimit="4" stroke-width="2.6667" d="M10.667 16h4.667c1.473 0 2.667 1.194 2.667 2.667s-1.194 2.667-2.667 2.667v0h-4.667v-9.333c0-0.736 0.597-1.333 1.333-1.333v0h2c1.473 0 2.667 1.194 2.667 2.667s-1.194 2.667-2.667 2.667v0h-2"></path>
<path stroke-linejoin="round" stroke-linecap="round" stroke-miterlimit="4" stroke-width="2.6667" d="M21.333 21.333h0.013"></path>
</symbol>
</defs>
</svg>