<svg aria-hidden="true" style="position: absolute; width: 0; height: 0; overflow: hidden;" version="1.1" xmlns="http://www.w3.org/2000/svg" xmlns:xlink="http://www.w3.org/1999/xlink">
<defs>
<symbol id="icon-menu" viewBox="0 0 32 32">
<path d="M3.2 5.12c-0.005-0-0.012-0-0.018-0-0.707 0-1.28 0.573-1.28 1.28s0.573 1.28 1.28 1.28c0.006 0 0.013-0 0.019-0h25.599c0.005 0 0.012 0 0.018 0 0.707 0 1.28-0.573 1.28-1.28s-0.573-1.28-1.28-1.28c-0.006 0-0.013 0-0.019 0h-25.599zM3.2 14.72c-0.005-0-0.012-0-0.018-0-0.707 0-1.28 0.573-1.28 1.28s0.573 1.28 1.28 1.28c0.006 0 0.013-0 0.019-0h25.599c0.005 0 0.012 0 0.018 0 0.707 0 1.28-0.573 1.28-1.28s-0.573-1.28-1.28-1.28c-0.006 0-0.013 0-0.019 0h-25.599zM3.2 24.32c-0.005-0-0.012-0-0.018-0-0.707 0-1.28 0.573-1.28 1.28s0.573 1.28 1.28 1.28c0.006 0 0.013-0 0.019-0h25.599c0.005 0 0.012 0 0.018 0 0.707 0 1.28-0.573 1.28-1.28s-0.573-1.28-1.28-1.28c-0.006 0-0.013 0-0.019 0h-25.599z"></path>
</symbol>

<symbol id="icon-close" viewBox="0 0 32 32">
<path d="M7.293 7.293c0.391-0.391 1.024-0.391 1.414 0l16 16c0.391 0.391 0.391 1.024 0 1.414s-1.024 0.391-1.414 0l-16-16c-0.391-0.391-0.391-1.024 0-1.414z"></path>
<path d="M24.707 7.293c0.391 0.391 0.391 1.024 0 1.414l-16 16c-0.391 0.391-1.024 0.391-1.414 0s-0.391-1.024 0-1.414l16-16c0.391-0.391 1.024-0.391 1.414 0z"></path>
</symbol>

<symbol id="icon-exit" viewBox="0 0 32 32">
<path fill="currentColor" d="M16 4c0.736 0 1.333 0.597 1.333 1.333 0 0.684-0.515 1.247-1.178 1.324l-0.155 0.009h-6.667c-0.684 0-1.247 0.515-1.324 1.178l-0.009 0.156v16c0 0.684 0.515 1.247 1.178 1.324l0.155 0.009h6c0.736 0 1.333 0.597 1.333 1.333 0 0.684-0.515 1.247-1.178 1.324l-0.155 0.009h-6c-2.13 0-3.872-1.665-3.993-3.765l-0.007-0.235v-16c0-2.13 1.665-3.872 3.765-3.993l0.235-0.007h6.667zM23.609 11.286l3.771 3.771c0.521 0.521 0.521 1.365 0 1.886l-3.771 3.771c-0.521 0.521-1.365 0.521-1.886 0s-0.521-1.365 0-1.886l1.495-1.495h-7.219c-0.736 0-1.333-0.597-1.333-1.333s0.597-1.333 1.333-1.333h7.219l-1.495-1.495c-0.521-0.521-0.521-1.365 0-1.886s1.365-0.521 1.886 0z"></path>
</symbol>

<symbol id="icon-settings" viewBox="0 0 32 32">
<path fill="currentColor"  d="M16 11c-2.761 0-5 2.239-5 5s2.239 5 5 5c2.761 0 5-2.239 5-5s-2.239-5-5-5zM13 16c0-1.657 1.343-3 3-3s3 1.343 3 3c0 1.657-1.343 3-3 3s-3-1.343-3-3z"></path>
<path fill="currentColor"  d="M15.966 1.667c-0.593 0-1.087 0-1.493 0.028-0.423 0.029-0.822 0.091-1.209 0.251-0.898 0.372-1.612 1.086-1.984 1.984-0.194 0.468-0.246 0.961-0.266 1.496-0.016 0.431-0.233 0.79-0.554 0.975s-0.741 0.194-1.122-0.008c-0.474-0.251-0.927-0.452-1.429-0.518-0.964-0.127-1.939 0.134-2.711 0.726-0.332 0.255-0.586 0.57-0.822 0.922-0.227 0.338-0.474 0.766-0.771 1.28l-0.034 0.058c-0.296 0.513-0.544 0.942-0.723 1.307-0.186 0.381-0.332 0.758-0.387 1.173-0.127 0.964 0.134 1.939 0.726 2.711 0.308 0.401 0.709 0.693 1.163 0.979 0.365 0.229 0.568 0.597 0.568 0.968s-0.203 0.738-0.568 0.968c-0.454 0.285-0.855 0.577-1.163 0.979-0.592 0.771-0.853 1.747-0.726 2.711 0.055 0.415 0.201 0.793 0.387 1.173 0.179 0.366 0.426 0.794 0.723 1.307l0.034 0.058c0.296 0.513 0.544 0.942 0.771 1.279 0.236 0.352 0.49 0.667 0.822 0.922 0.771 0.592 1.747 0.853 2.711 0.726 0.502-0.066 0.955-0.267 1.429-0.518 0.381-0.201 0.801-0.193 1.122-0.008s0.538 0.545 0.554 0.975c0.020 0.536 0.073 1.029 0.266 1.496 0.372 0.898 1.086 1.612 1.984 1.984 0.387 0.16 0.787 0.223 1.209 0.251 0.406 0.028 0.901 0.028 1.493 0.028h0.067c0.593 0 1.087 0 1.494-0.028 0.423-0.029 0.822-0.091 1.209-0.251 0.898-0.372 1.612-1.086 1.984-1.984 0.194-0.468 0.246-0.961 0.266-1.497 0.016-0.431 0.233-0.79 0.554-0.975s0.741-0.194 1.122 0.008c0.474 0.251 0.927 0.452 1.429 0.518 0.964 0.127 1.939-0.134 2.711-0.726 0.333-0.255 0.586-0.57 0.822-0.922 0.227-0.338 0.474-0.766 0.771-1.279l0.034-0.058c0.296-0.513 0.544-0.942 0.723-1.307 0.186-0.381 0.332-0.757 0.387-1.173 0.127-0.964-0.134-1.939-0.726-2.711-0.308-0.402-0.709-0.693-1.163-0.979-0.365-0.229-0.568-0.597-0.568-0.968s0.203-0.738 0.567-0.968c0.454-0.285 0.855-0.577 1.163-0.979 0.592-0.771 0.853-1.747 0.726-2.711-0.055-0.415-0.201-0.792-0.387-1.173-0.179-0.366-0.426-0.794-0.723-1.307l-0.034-0.058c-0.296-0.513-0.544-0.942-0.771-1.28-0.236-0.352-0.49-0.667-0.822-0.922-0.771-0.592-1.747-0.853-2.711-0.726-0.502 0.066-0.955 0.267-1.429 0.518-0.381 0.201-0.801 0.193-1.122 0.008s-0.538-0.545-0.554-0.975c-0.020-0.536-0.072-1.029-0.266-1.496-0.372-0.898-1.086-1.612-1.984-1.984-0.387-0.16-0.787-0.223-1.209-0.251-0.406-0.028-0.901-0.028-1.494-0.028h-0.067zM14.029 3.794c0.103-0.043 0.259-0.082 0.58-0.104 0.33-0.022 0.756-0.023 1.391-0.023s1.061 0.001 1.391 0.023c0.321 0.022 0.477 0.061 0.58 0.104 0.408 0.169 0.733 0.494 0.902 0.902 0.053 0.129 0.098 0.33 0.115 0.806 0.039 1.056 0.585 2.074 1.553 2.633s2.122 0.523 3.056 0.029c0.421-0.223 0.617-0.285 0.755-0.303 0.438-0.058 0.881 0.061 1.232 0.33 0.088 0.068 0.201 0.183 0.38 0.45 0.185 0.274 0.398 0.643 0.715 1.193s0.53 0.919 0.676 1.216c0.141 0.289 0.186 0.444 0.2 0.554 0.058 0.438-0.061 0.881-0.33 1.232-0.085 0.111-0.237 0.249-0.64 0.503-0.895 0.563-1.503 1.543-1.503 2.661s0.608 2.099 1.503 2.661c0.403 0.253 0.555 0.392 0.64 0.503 0.269 0.351 0.388 0.794 0.33 1.232-0.015 0.11-0.059 0.265-0.2 0.554-0.145 0.297-0.358 0.666-0.676 1.216s-0.531 0.919-0.715 1.193c-0.179 0.267-0.292 0.383-0.38 0.45-0.351 0.269-0.794 0.388-1.232 0.33-0.138-0.018-0.334-0.080-0.755-0.303-0.935-0.494-2.088-0.53-3.057 0.029s-1.513 1.576-1.553 2.633c-0.018 0.476-0.062 0.677-0.115 0.806-0.169 0.408-0.494 0.733-0.902 0.902-0.103 0.043-0.259 0.082-0.58 0.104-0.33 0.023-0.756 0.023-1.391 0.023s-1.061-0.001-1.391-0.023c-0.321-0.022-0.477-0.061-0.58-0.104-0.408-0.169-0.733-0.494-0.902-0.902-0.053-0.129-0.098-0.33-0.115-0.806-0.040-1.056-0.585-2.074-1.553-2.633s-2.122-0.523-3.056-0.029c-0.421 0.223-0.617 0.285-0.755 0.303-0.438 0.058-0.881-0.061-1.232-0.33-0.088-0.068-0.201-0.183-0.38-0.451-0.184-0.274-0.398-0.643-0.715-1.193s-0.53-0.919-0.676-1.216c-0.142-0.289-0.186-0.444-0.2-0.554-0.058-0.438 0.061-0.881 0.33-1.232 0.085-0.111 0.237-0.249 0.64-0.503 0.895-0.562 1.503-1.543 1.504-2.661s-0.608-2.099-1.504-2.661c-0.403-0.253-0.555-0.392-0.64-0.503-0.269-0.351-0.388-0.794-0.33-1.232 0.015-0.11 0.059-0.265 0.2-0.554 0.145-0.297 0.358-0.666 0.676-1.216s0.531-0.919 0.715-1.193c0.179-0.267 0.292-0.383 0.38-0.45 0.351-0.269 0.794-0.388 1.232-0.33 0.138 0.018 0.334 0.080 0.756 0.303 0.935 0.494 2.088 0.53 3.056-0.029s1.513-1.576 1.553-2.633c0.018-0.476 0.062-0.677 0.115-0.806 0.169-0.408 0.494-0.733 0.902-0.902z"></path>
</symbol>

<symbol id="icon-github" viewBox="0 0 32 32">
<path d="M5.433 3.992c0.078-1.373 0.406-1.971 1.347-2.45 1.012-0.516 2.609-0.276 4.488 0.675 0.809 0.41 0.892 0.418 2.31 0.236 1.885-0.242 4.312-0.241 6.052 0.002 1.316 0.184 1.402 0.175 2.213-0.236 2.667-1.35 4.772-1.262 5.535 0.232 0.381 0.746 0.451 2.681 0.156 4.278-0.164 0.885-0.146 0.995 0.248 1.576 2.773 4.086 0.775 10.71-3.977 13.182-0.364 0.189-0.67 0.306-0.92 0.402-0.767 0.293-1 0.382-0.718 1.729 0.136 0.648 0.299 2.26 0.363 3.582 0.116 2.389 0.114 2.406-0.305 2.893-0.57 0.663-1.393 0.674-1.95 0.027-0.363-0.422-0.399-0.622-0.399-2.252 0-2.408-0.264-4.009-0.888-5.381-0.742-1.632-0.192-2.241 1.504-2.606 2.358-0.507 4.199-1.962 5.226-4.129 0.976-2.060 1.123-4.906-0.641-6.637-0.502-0.596-0.537-1.136-0.178-2.765 0.134-0.609 0.246-1.394 0.249-1.745 0.005-0.555-0.045-0.638-0.386-0.638-0.216 0-1.039 0.314-1.83 0.697l-1.262 0.612c-0.115 0.056-0.243 0.077-0.37 0.062-3.21-0.368-6.26-0.374-9.486 0.001-0.127 0.015-0.256-0.007-0.371-0.062l-1.262-0.612c-0.791-0.384-1.615-0.698-1.83-0.698-0.498 0-0.506 0.368-0.052 2.554 0.277 1.335 0.464 1.632-0.338 2.7-1.202 1.6-1.503 3.587-0.858 5.675 0.813 2.631 2.803 4.408 5.6 5.001 1.687 0.357 2.127 0.824 1.483 2.758-0.507 1.522-0.827 1.914-1.564 1.914-0.991 0-1.612-0.859-1.27-1.757 0.15-0.396 0.106-0.438-0.823-0.777-2.835-1.033-5.003-3.35-5.994-6.404-0.766-2.361-0.429-5.433 0.8-7.29 0.418-0.632 0.425-0.686 0.23-1.896-0.111-0.685-0.17-1.788-0.133-2.451z"></path>
<path d="M4.443 21.261c-0.408-0.613-1.236-0.778-1.849-0.37s-0.778 1.236-0.37 1.849c0.302 0.452 0.662 0.824 0.969 1.13 0.056 0.057 0.111 0.111 0.165 0.164 0.257 0.255 0.483 0.48 0.711 0.747 0.503 0.591 1.006 1.387 1.291 2.813 0.127 0.636 0.584 0.978 0.837 1.128 0.275 0.162 0.574 0.258 0.821 0.32 0.505 0.127 1.118 0.193 1.7 0.232 0.639 0.042 1.331 0.056 1.949 0.060 0 0.736 0.597 1.332 1.333 1.332s1.333-0.597 1.333-1.333v-1.333c0-0.736-0.597-1.333-1.333-1.333-0.126 0-0.262 0-0.406 0.001-0.782 0.002-1.802 0.005-2.701-0.054-0.433-0.029-0.789-0.069-1.050-0.119-0.402-1.579-1.052-2.629-1.745-3.443-0.306-0.36-0.624-0.674-0.882-0.93-0.048-0.048-0.095-0.094-0.138-0.137-0.298-0.298-0.493-0.509-0.635-0.724z"></path>
</symbol>

<symbol id="icon-support" viewBox="0 0 32 32">
<path d="M16 0c-8.836 0-16 7.163-16 16s7.163 16 16 16 16-7.163 16-16-7.163-16-16-16zM20 2.593c4.507 1.343 8.052 4.9 9.397 9.407h-6.486c-0.701-1.204-1.706-2.209-2.91-2.908zM21.989 16.006c0 3.311-2.681 5.994-5.989 5.994s-5.989-2.683-5.989-5.994 2.681-5.994 5.989-5.994c3.307 0 5.989 2.684 5.989 5.994zM14 2.154c0.653-0.094 1.32-0.144 2-0.144s1.346 0.051 2 0.144v6.119c-0.64-0.165-1.308-0.262-2-0.262s-1.36 0.097-2 0.262v-6.119zM12 2.593v6.499c-1.205 0.7-2.21 1.704-2.91 2.908h-6.487c1.345-4.507 4.89-8.063 9.397-9.407zM2.010 16.005c0-0.682 0.058-1.349 0.152-2.005h6.106c-0.166 0.641-0.257 1.312-0.257 2.005 0 0.69 0.091 1.357 0.255 1.995h-6.105c-0.093-0.652-0.151-1.317-0.151-1.995zM12 29.416c-4.511-1.344-8.056-4.906-9.4-9.416h6.483c0.701 1.208 1.708 2.217 2.916 2.919v6.498zM18 29.855c-0.654 0.093-1.321 0.145-2 0.145s-1.347-0.052-2-0.145v-6.118c0.64 0.166 1.308 0.262 2 0.262s1.36-0.097 2-0.262v6.118zM20 29.416v-6.498c1.208-0.701 2.216-1.71 2.916-2.919h6.483c-1.343 4.511-4.89 8.073-9.399 9.416zM23.735 18c0.164-0.637 0.255-1.305 0.255-1.995 0-0.694-0.091-1.364-0.258-2.005h6.107c0.094 0.656 0.152 1.323 0.152 2.005 0 0.678-0.058 1.343-0.151 1.995h-6.105z"></path>
</symbol>

<symbol id="icon-arrow" viewBox="0 0 32 32">
<path d="M7.414 27.414l16.586-16.586v7.172c0 1.105 0.895 2 2 2s2-0.895 2-2v-12c0-0.809-0.487-1.538-1.235-1.848-0.248-0.103-0.508-0.151-0.765-0.151v-0.001h-12c-1.105 0-2 0.895-2 2s0.895 2 2 2h7.172l-16.586 16.586c-0.391 0.39-0.586 0.902-0.586 1.414s0.195 1.024 0.586 1.414c0.781 0.781 2.047 0.781 2.828 0z"></path>
</symbol>

<symbol id="icon-eye" viewBox="0 0 32 32">
<path d="M16 25c-7.773 0-11.427-8.253-11.587-8.6-0.053-0.127-0.080-0.263-0.080-0.4s0.027-0.273 0.080-0.4c0.16-0.347 3.813-8.6 11.587-8.6s11.427 8.253 11.587 8.6c0.053 0.127 0.080 0.263 0.080 0.4s-0.027 0.273-0.080 0.4c-0.16 0.347-3.813 8.6-11.587 8.6zM6.44 16c0.787 1.533 4 7 9.56 7s8.773-5.467 9.56-7c-0.787-1.533-4-7-9.56-7s-8.773 5.467-9.56 7z"></path>
<path d="M16 20.333c-0.857 0-1.695-0.254-2.407-0.73s-1.268-1.153-1.596-1.945c-0.328-0.792-0.414-1.663-0.247-2.504s0.58-1.613 1.186-2.219 1.378-1.019 2.219-1.186c0.841-0.167 1.712-0.081 2.504 0.247s1.469 0.883 1.945 1.596c0.476 0.713 0.73 1.55 0.73 2.407-0.003 1.148-0.461 2.248-1.273 3.060s-1.912 1.27-3.060 1.273zM16 13.667c-0.461 0-0.913 0.137-1.296 0.393s-0.683 0.621-0.859 1.047c-0.177 0.426-0.223 0.895-0.133 1.348s0.312 0.868 0.639 1.195c0.326 0.326 0.742 0.549 1.195 0.639s0.922 0.044 1.348-0.133c0.426-0.177 0.791-0.476 1.047-0.859s0.393-0.835 0.393-1.296c-0.003-0.618-0.25-1.209-0.687-1.646s-1.028-0.684-1.646-0.687z"></path>
</symbol>

<symbol id="icon-closed-eye" viewBox="0 0 32 32">
<path d="M27.587 15.6c-0.16-0.347-3.813-8.6-11.587-8.6-0.744-0.001-1.487 0.080-2.213 0.24-0.239 0.074-0.442 0.235-0.568 0.452s-0.166 0.473-0.113 0.717c0.054 0.245 0.197 0.461 0.402 0.604s0.457 0.206 0.705 0.173c0.588-0.123 1.186-0.185 1.787-0.187 5.573 0 8.773 5.467 9.56 7-0.48 0.937-1.042 1.829-1.68 2.667-0.115 0.148-0.186 0.324-0.205 0.51s0.014 0.373 0.096 0.541c0.082 0.168 0.209 0.31 0.368 0.409s0.341 0.152 0.528 0.153c0.152-0.001 0.302-0.036 0.438-0.103s0.255-0.164 0.349-0.284c0.84-1.066 1.555-2.225 2.133-3.453 0.058-0.132 0.089-0.275 0.089-0.42s-0.030-0.288-0.089-0.42z"></path>
<path d="M8.707 7.293c-0.19-0.177-0.44-0.273-0.699-0.268s-0.506 0.11-0.689 0.293c-0.183 0.183-0.288 0.43-0.293 0.689s0.092 0.51 0.268 0.699l1.227 1.227c-1.737 1.598-3.134 3.53-4.107 5.68-0.052 0.125-0.079 0.258-0.079 0.393s0.027 0.269 0.079 0.393c0.16 0.347 3.813 8.6 11.587 8.6 2.079 0.010 4.115-0.593 5.853-1.733l1.44 1.44c0.187 0.187 0.442 0.293 0.707 0.293s0.519-0.105 0.707-0.293c0.187-0.187 0.292-0.442 0.292-0.707s-0.105-0.519-0.292-0.707l-16-16zM13.813 15.293l2.947 2.96c-0.413 0.137-0.855 0.16-1.28 0.066s-0.816-0.301-1.133-0.599c-0.323-0.318-0.545-0.724-0.64-1.167s-0.058-0.904 0.107-1.327v0.067zM16 23c-5.587 0-8.773-5.48-9.56-7 0.87-1.752 2.054-3.329 3.493-4.653l2.387 2.387c-0.512 0.828-0.73 1.805-0.617 2.772s0.548 1.868 1.236 2.556c0.688 0.688 1.589 1.124 2.556 1.236s1.944-0.105 2.772-0.617l2.147 2.147c-1.34 0.779-2.864 1.184-4.413 1.173z"></path>
</symbol>

</defs>
</svg>
